Coordinates
version=1
nRows=22
nColumns=24
inDegrees=yes

Units are S.I. units (second, meters, Newtons, ...)
If the header above contains a line with 'inDegrees', this indicates whether rotational values are in degrees (yes) or radians (no).

endheader
time	pelvis_tilt	pelvis_list	pelvis_rotation	pelvis_tx	pelvis_ty	pelvis_tz	hip_flexion_r	hip_adduction_r	hip_rotation_r	knee_angle_r	ankle_angle_r	subtalar_angle_r	mtp_angle_r	hip_flexion_l	hip_adduction_l	hip_rotation_l	knee_angle_l	ankle_angle_l	subtalar_angle_l	mtp_angle_l	lumbar_extension	lumbar_bending	lumbar_rotation
      1.13333300	     22.86878547	      2.16159412	    -12.77916070	     -1.78844966	      0.96696446	      0.04639128	    -14.61534496	    -12.99135829	      7.14034249	    -57.85947978	     -7.21965114	    -24.12914456	      7.74543718	    -20.16516874	      5.12530182	    -30.33606422	    -19.33413448	     -5.60333549	    -18.17040981	     38.98862767	    -31.78283673	     -3.05526166	     29.12854776
      1.14166700	     22.86761995	      1.76006761	    -12.15419846	     -1.78183714	      0.96768536	      0.04421150	    -13.80623153	    -12.28087665	      6.47401859	    -58.85353988	     -6.46459765	    -24.78029878	      5.29619035	    -20.86142615	      4.74335874	    -29.99542194	    -18.95744413	     -5.38973497	    -17.72323064	     39.26582836	    -31.89084920	     -2.15096165	     29.26649300
      1.15000000	     22.96965887	      1.33675422	    -11.49987722	     -1.77521377	      0.96851477	      0.04200832	    -13.14809060	    -11.59398932	      5.67733275	    -59.62073699	     -5.90032143	    -25.66634953	      3.52430968	    -21.69509281	      4.34730108	    -29.66221671	    -18.51742089	     -5.22258856	    -17.21652992	     39.56803176	    -32.09841941	     -1.24158391	     29.33883269
      1.15833300	     22.98771719	      0.89766783	    -10.82315760	     -1.76856503	      0.96929013	      0.03977899	    -12.42424746	    -10.88224787	      4.83682367	    -60.19246670	     -5.28117134	    -26.39321599	      1.76268651	    -22.43679144	      3.90207734	    -29.32197497	    -18.07341310	     -5.07753926	    -16.70834565	     39.82483320	    -32.23922403	     -0.23256210	     29.55612665
      1.16666700	     22.97304898	      0.36517612	    -10.17229917	     -1.76192830	      0.97003985	      0.03755934	    -11.70121409	    -10.07916663	      4.04829154	    -60.54166249	     -4.53264658	    -26.79066425	     -0.06140142	    -23.15198368	      3.35267791	    -29.09843448	    -17.65145509	     -4.85420079	    -16.17834727	     40.02144373	    -32.37358181	      0.90344504	     29.91543787
      1.17500000	     23.00753650	     -0.09604156	     -9.47068204	     -1.75530308	      0.97083020	      0.03534746	    -11.04815594	     -9.37717638	      3.11511565	    -60.68189240	     -4.19510110	    -27.55945537	     -0.75195681	    -23.90929498	      2.86173533	    -28.77593727	    -17.17725295	     -4.77358293	    -15.79823560	     40.31117667	    -32.49863858	      1.89091462	     29.97384758
      1.18333300	     23.03289713	     -0.66398514	     -8.85808682	     -1.74871625	      0.97154598	      0.03319114	    -10.41118217	     -8.57183557	      2.33625164	    -60.61921612	     -3.50726360	    -27.77765216	     -2.11799013	    -24.67584688	      2.27796001	    -28.66579616	    -16.71753527	     -4.54426019	    -15.07530489	     40.44215549	    -32.68957846	      3.06946825	     30.48121134
      1.19166700	     23.06576239	     -1.11857112	     -8.16225237	     -1.74213879	      0.97226304	      0.03104776	     -9.80944667	     -7.89349390	      1.40391743	    -60.35466475	     -3.17916519	    -28.18639437	     -2.44137623	    -25.42537145	      1.77397511	    -28.33923083	    -16.20659714	     -4.49110763	    -14.64875266	     40.74618769	    -32.80393732	      4.05488221	     30.56308576
      1.20000000	     23.11981788	     -1.66310586	     -7.53708170	     -1.73558887	      0.97292547	      0.02899786	     -9.25914686	     -7.12548657	      0.58392594	    -59.89270797	     -2.78724728	    -28.42224127	     -2.78363982	    -26.20227580	      1.18618646	    -28.22654554	    -15.73755472	     -4.31400914	    -14.00221456	     40.92402273	    -32.96940347	      5.13128080	     30.84016982
      1.20833300	     23.10875317	     -2.07998181	     -6.86717304	     -1.72902868	      0.97346844	      0.02696936	     -8.66202508	     -6.49564277	     -0.32181600	    -59.26609473	     -2.40580244	    -28.49151274	     -2.73919878	    -26.87371524	      0.69219676	    -27.93267842	    -15.25425086	     -4.21251513	    -13.54984727	     41.16881436	    -33.02215871	      6.08871948	     30.97479937
      1.21666700	     23.20159383	     -2.56575086	     -6.23567458	     -1.72247397	      0.97405978	      0.02500305	     -8.21808730	     -5.80923160	     -1.18239238	    -58.43261065	     -2.19157482	    -28.65337539	     -2.58493265	    -27.67515439	      0.13738174	    -27.83200801	    -14.76529627	     -4.14994338	    -12.81386062	     41.31251038	    -33.20513553	      7.11166645	     31.22794904
      1.22500000	     23.24563512	     -3.08270773	     -5.69412026	     -1.71593164	      0.97449741	      0.02313407	     -7.72865883	     -5.09396542	     -1.91473014	    -57.44539882	     -2.04588885	    -28.74677283	     -1.94898325	    -28.43041729	     -0.41533868	    -27.81585993	    -14.28299016	     -3.95218810	    -12.04078187	     41.32675046	    -33.38793370	      8.21271215	     31.81559730
      1.23333300	     23.34108659	     -3.51739504	     -5.07129698	     -1.70932717	      0.97491193	      0.02132208	     -7.36394855	     -4.46396180	     -2.77790621	    -56.26613077	     -1.83683306	    -28.78240741	     -1.36783093	    -29.20675566	     -0.94205723	    -27.71188769	    -13.82329528	     -3.87415199	    -11.42738422	     41.46141164	    -33.53643397	      9.15872188	     32.00943616
      1.24166700	     23.39258487	     -3.95617517	     -4.51098722	     -1.70269529	      0.97520378	      0.01960449	     -6.96940922	     -3.83036278	     -3.54931460	    -54.93787680	     -1.78719913	    -28.80779108	     -0.40991444	    -29.95397268	     -1.44786532	    -27.62001083	    -13.32826941	     -3.73017671	    -10.66177050	     41.44631875	    -33.66294291	     10.13422975	     32.38878336
      1.25000000	     23.49776325	     -4.33674598	     -3.90728675	     -1.69603606	      0.97547976	      0.01794715	     -6.69500765	     -3.25512715	     -4.38713350	    -53.43593807	     -1.64744527	    -28.74227296	      0.37886940	    -30.72260033	     -1.93809211	    -27.52869163	    -12.88117959	     -3.66585041	    -10.01935577	     41.49686822	    -33.78928361	     11.00185488	     32.52587869
      1.25833300	     23.51618740	     -4.67250682	     -3.34637676	     -1.68936587	      0.97561646	      0.01637337	     -6.34269170	     -2.72814875	     -5.17151972	    -51.80956535	     -1.69963623	    -28.68819213	      1.73232798	    -31.39283599	     -2.37658234	    -27.39750322	    -12.42314362	     -3.57458412	     -9.31094538	     41.41026534	    -33.84588959	     11.86211965	     32.81552296
      1.26666700	     23.63280582	     -4.96326615	     -2.75885538	     -1.68270474	      0.97577275	      0.01486542	     -6.16264320	     -2.24276174	     -5.97587406	    -50.02184866	     -1.58312386	    -28.39851553	      2.61711351	    -32.14197934	     -2.79755739	    -27.29188663	    -11.99951280	     -3.55059918	     -8.74545308	     41.45516978	    -33.94525258	     12.59623021	     32.81476402
      1.27500000	     23.69284944	     -5.22799018	     -2.20794668	     -1.67601463	      0.97580218	      0.01342677	     -5.94860620	     -1.79026785	     -6.73256773	    -48.11913635	     -1.66101255	    -28.11772498	      4.13540287	    -32.82304724	     -3.18905581	    -27.18141226	    -11.58950474	     -3.46427433	     -8.10629886	     41.34423923	    -33.99148127	     13.31860484	     32.88253257
      1.28333300	     23.69186520	     -5.42010421	     -1.67540116	     -1.66929915	      0.97572825	      0.01205922	     -5.69887613	     -1.41854781	     -7.47140342	    -46.12098795	     -1.83418186	    -27.71797001	      5.88207365	    -33.42506129	     -3.51282513	    -26.98751261	    -11.17599437	     -3.41791390	     -7.57999991	     41.26775659	    -33.96438528	     13.97444065	     32.94142976
      1.29166700	     23.73825936	     -5.57448194	     -1.16369196	     -1.66255954	      0.97561444	      0.01076888	     -5.55118566	     -1.08737781	     -8.17751938	    -44.01538980	     -1.92624787	    -27.12215487	      7.49635755	    -34.06127171	     -3.80344880	    -26.84556591	    -10.80223924	     -3.40852937	     -7.09393943	     41.19673955	    -33.96209702	     14.55385203	     32.90795138
      1.30000000	     23.76729640	     -5.68276370	     -0.66532202	     -1.65579072	      0.97542624	      0.00955648	     -5.42661651	     -0.80377123	     -8.86671336	    -41.82456809	     -2.05199436	    -26.38294378	      9.21140219	    -34.66060599	     -4.06106856	    -26.67604154	    -10.45868873	     -3.41518035	     -6.65171565	     41.11113451	    -33.93205504	     15.07955964	     32.85024646
      1.30833300	     23.79417948	     -5.75325233	     -0.18390726	     -1.64897696	      0.97516341	      0.00842248	     -5.34318732	     -0.55841371	     -9.53834381	    -39.56326803	     -2.18092104	    -25.49306651	     10.92940230	    -35.24423767	     -4.29011248	    -26.49574410	    -10.14311985	     -3.43234187	     -6.25052090	     41.03712110	    -33.88402264	     15.55234580	     32.75021941
